<svg width="17" height="21" viewBox="0 0 17 21" fill="none" xmlns="http://www.w3.org/2000/svg">
<path d="M1.5 20.9746C1.1 20.9746 0.75 20.8246 0.45 20.5246C0.15 20.2246 0 19.8746 0 19.4746V4.39961H1.5V19.4746H13.35V20.9746H1.5ZM4.5 17.9746C4.1 17.9746 3.75 17.8246 3.45 17.5246C3.15 17.2246 3 16.8746 3 16.4746V2.47461C3 2.07461 3.15 1.72461 3.45 1.42461C3.75 1.12461 4.1 0.974609 4.5 0.974609H15.5C15.9 0.974609 16.25 1.12461 16.55 1.42461C16.85 1.72461 17 2.07461 17 2.47461V16.4746C17 16.8746 16.85 17.2246 16.55 17.5246C16.25 17.8246 15.9 17.9746 15.5 17.9746H4.5ZM4.5 16.4746H15.5V2.47461H4.5V16.4746Z" fill="#F95ACC"/>
</svg>
