<svg width="12" height="14" viewBox="0 0 12 14" fill="none" xmlns="http://www.w3.org/2000/svg">
<path d="M1 13.6502C0.733333 13.6502 0.5 13.5502 0.3 13.3502C0.1 13.1502 0 12.9169 0 12.6502V2.60023H1V12.6502H8.9V13.6502H1ZM3 11.6502C2.73333 11.6502 2.5 11.5502 2.3 11.3502C2.1 11.1502 2 10.9169 2 10.6502V1.31689C2 1.05023 2.1 0.816894 2.3 0.616894C2.5 0.416894 2.73333 0.316895 3 0.316895H10.3333C10.6 0.316895 10.8333 0.416894 11.0333 0.616894C11.2333 0.816894 11.3333 1.05023 11.3333 1.31689V10.6502C11.3333 10.9169 11.2333 11.1502 11.0333 11.3502C10.8333 11.5502 10.6 11.6502 10.3333 11.6502H3ZM3 10.6502H10.3333V1.31689H3V10.6502Z" fill="#F95ACC"/>
</svg>
