<svg width="10" height="11" viewBox="0 0 10 11" fill="none" xmlns="http://www.w3.org/2000/svg">
<path d="M9.99414 7.74658L9.98779 1.36084C9.98779 0.999023 9.75293 0.745117 9.37207 0.745117H2.98633C2.63086 0.745117 2.38965 1.01807 2.38965 1.32275C2.38965 1.62744 2.6626 1.8877 2.96094 1.8877H5.16992L8.26758 1.78613L7.08691 2.8208L0.796387 9.12402C0.682129 9.23828 0.618652 9.38428 0.618652 9.52393C0.618652 9.82861 0.891602 10.1143 1.20898 10.1143C1.35498 10.1143 1.49463 10.0635 1.60889 9.94287L7.91211 3.646L8.95947 2.45898L8.84521 5.42334V7.77197C8.84521 8.07031 9.10547 8.34961 9.4165 8.34961C9.72119 8.34961 9.99414 8.08936 9.99414 7.74658Z" fill="white"/>
</svg>
