<svg width="15" height="13" viewBox="0 0 15 13" fill="none" xmlns="http://www.w3.org/2000/svg">
<path fill-rule="evenodd" clip-rule="evenodd" d="M12.6846 0.95331C12.8493 0.883971 13.0297 0.860056 13.2068 0.884055C13.3839 0.908054 13.5514 0.979089 13.6917 1.08977C13.8321 1.20044 13.9402 1.34672 14.0048 1.51337C14.0695 1.68001 14.0883 1.86094 14.0593 2.03731L12.5473 11.2086C12.4006 12.0933 11.4299 12.6006 10.6186 12.16C9.93993 11.7913 8.93193 11.2233 8.02526 10.6306C7.57193 10.334 6.18327 9.38398 6.35393 8.70798C6.5006 8.12998 8.83393 5.95798 10.1673 4.66664C10.6906 4.15931 10.4519 3.86664 9.83393 4.33331C8.29926 5.49198 5.83526 7.25398 5.0206 7.74998C4.30193 8.18731 3.92726 8.26198 3.47926 8.18731C2.66193 8.05131 1.90393 7.84064 1.28527 7.58398C0.449265 7.23731 0.489932 6.08798 1.2846 5.75331L12.6846 0.95331Z" fill="white"/>
</svg>
