<svg width="18" height="20" viewBox="0 0 18 20" fill="none" xmlns="http://www.w3.org/2000/svg">
<path fill-rule="evenodd" clip-rule="evenodd" d="M9.4222 0.640633C10.4456 0.625 11.4612 0.632805 12.4768 0.625C12.5393 1.82031 12.969 3.03904 13.8439 3.88277C14.7188 4.74995 15.9532 5.14839 17.1562 5.28119V8.42959C16.0313 8.39052 14.8985 8.15615 13.8751 7.67179C13.4298 7.46866 13.0158 7.21084 12.6096 6.94523C12.6018 9.22645 12.6174 11.5077 12.594 13.7811C12.5314 14.8748 12.1721 15.9608 11.5393 16.8592C10.5159 18.3592 8.74256 19.3357 6.92231 19.367C5.80519 19.4294 4.68804 19.1248 3.73495 18.5623C2.15691 17.6326 1.04756 15.9295 0.883523 14.1014C0.86789 13.7108 0.860085 13.3202 0.875695 12.9374C1.01632 11.453 1.75066 10.0311 2.89125 9.06238C4.18805 7.93741 6.00047 7.39834 7.6957 7.71866C7.71134 8.87491 7.66448 10.0311 7.66448 11.1874C6.89105 10.9374 5.98486 11.0077 5.30519 11.4764C4.81303 11.7967 4.43805 12.2889 4.24275 12.8436C4.07869 13.242 4.12556 13.6795 4.13337 14.1014C4.32087 15.3826 5.55518 16.4607 6.86763 16.3435C7.7426 16.3357 8.5785 15.8279 9.03162 15.0858C9.18002 14.8279 9.34408 14.5623 9.35189 14.2576C9.43003 12.8592 9.39877 11.4686 9.40659 10.0702C9.4144 6.92179 9.39876 3.78121 9.4222 0.640633Z" fill="white"/>
</svg>
